<mxfile host="app.diagrams.net" modified="2024-02-27T02:36:34.257Z" agent="Mozilla/5.0 (Windows NT 10.0; Win64; x64) AppleWebKit/537.36 (KHTML, like Gecko) Chrome/121.0.0.0 Safari/537.36" etag="6NFiMkXZnHy5ES1zmP7Q" version="23.1.5" type="device">
  <diagram name="Halaman-1" id="qtfpoh0PCq6YdaQNM-wx">
    <mxGraphModel dx="1434" dy="772" grid="1" gridSize="10" guides="1" tooltips="1" connect="1" arrows="1" fold="1" page="1" pageScale="1" pageWidth="827" pageHeight="1169" math="0" shadow="0">
      <root>
        <mxCell id="0" />
        <mxCell id="1" parent="0" />
        <mxCell id="kJlquGAruxBqSHvNYSEQ-1" value="MAHASISWA" style="rounded=0;whiteSpace=wrap;html=1;" vertex="1" parent="1">
          <mxGeometry x="50" y="120" width="120" height="60" as="geometry" />
        </mxCell>
        <mxCell id="kJlquGAruxBqSHvNYSEQ-2" value="MATAKULIIAH&amp;nbsp;" style="rounded=0;whiteSpace=wrap;html=1;" vertex="1" parent="1">
          <mxGeometry x="540" y="120" width="120" height="60" as="geometry" />
        </mxCell>
        <mxCell id="kJlquGAruxBqSHvNYSEQ-3" value="DOSEN" style="rounded=0;whiteSpace=wrap;html=1;" vertex="1" parent="1">
          <mxGeometry x="550" y="420" width="120" height="60" as="geometry" />
        </mxCell>
        <mxCell id="kJlquGAruxBqSHvNYSEQ-4" value="Nim" style="ellipse;whiteSpace=wrap;html=1;rounded=0;" vertex="1" parent="1">
          <mxGeometry x="45" width="130" height="50" as="geometry" />
        </mxCell>
        <mxCell id="kJlquGAruxBqSHvNYSEQ-10" value="mengambil" style="rhombus;whiteSpace=wrap;html=1;rounded=0;" vertex="1" parent="1">
          <mxGeometry x="270" y="110" width="80" height="80" as="geometry" />
        </mxCell>
        <mxCell id="kJlquGAruxBqSHvNYSEQ-13" value="Kode Matakuliah" style="ellipse;whiteSpace=wrap;html=1;rounded=0;" vertex="1" parent="1">
          <mxGeometry x="505" width="190" height="60" as="geometry" />
        </mxCell>
        <mxCell id="kJlquGAruxBqSHvNYSEQ-16" value="mengajar" style="rhombus;whiteSpace=wrap;html=1;rounded=0;" vertex="1" parent="1">
          <mxGeometry x="560" y="250" width="80" height="80" as="geometry" />
        </mxCell>
        <mxCell id="kJlquGAruxBqSHvNYSEQ-19" value="Nip" style="ellipse;whiteSpace=wrap;html=1;rounded=0;" vertex="1" parent="1">
          <mxGeometry x="770" y="440" width="130" height="50" as="geometry" />
        </mxCell>
        <mxCell id="kJlquGAruxBqSHvNYSEQ-23" value="Nim" style="ellipse;whiteSpace=wrap;html=1;rounded=0;" vertex="1" parent="1">
          <mxGeometry x="210" y="20" width="80" height="40" as="geometry" />
        </mxCell>
        <mxCell id="kJlquGAruxBqSHvNYSEQ-27" value="Kode Matakuliah" style="ellipse;whiteSpace=wrap;html=1;" vertex="1" parent="1">
          <mxGeometry x="300" y="20" width="120" height="40" as="geometry" />
        </mxCell>
        <mxCell id="kJlquGAruxBqSHvNYSEQ-28" value="Kode Matakuliah" style="ellipse;whiteSpace=wrap;html=1;rounded=0;" vertex="1" parent="1">
          <mxGeometry x="705" y="220" width="160" height="50" as="geometry" />
        </mxCell>
        <mxCell id="kJlquGAruxBqSHvNYSEQ-31" value="Nip" style="ellipse;whiteSpace=wrap;html=1;rounded=0;" vertex="1" parent="1">
          <mxGeometry x="710" y="300" width="150" height="50" as="geometry" />
        </mxCell>
        <mxCell id="kJlquGAruxBqSHvNYSEQ-33" value="" style="endArrow=none;html=1;rounded=0;exitX=0.5;exitY=0;exitDx=0;exitDy=0;entryX=0.5;entryY=1;entryDx=0;entryDy=0;" edge="1" parent="1" source="kJlquGAruxBqSHvNYSEQ-1" target="kJlquGAruxBqSHvNYSEQ-4">
          <mxGeometry width="50" height="50" relative="1" as="geometry">
            <mxPoint x="390" y="360" as="sourcePoint" />
            <mxPoint x="440" y="310" as="targetPoint" />
            <Array as="points" />
          </mxGeometry>
        </mxCell>
        <mxCell id="kJlquGAruxBqSHvNYSEQ-35" value="" style="endArrow=none;html=1;rounded=0;entryX=0;entryY=0.5;entryDx=0;entryDy=0;exitX=1;exitY=0.5;exitDx=0;exitDy=0;" edge="1" parent="1" source="kJlquGAruxBqSHvNYSEQ-1" target="kJlquGAruxBqSHvNYSEQ-10">
          <mxGeometry width="50" height="50" relative="1" as="geometry">
            <mxPoint x="180" y="170" as="sourcePoint" />
            <mxPoint x="230" y="120" as="targetPoint" />
          </mxGeometry>
        </mxCell>
        <mxCell id="kJlquGAruxBqSHvNYSEQ-36" value="" style="endArrow=none;html=1;rounded=0;" edge="1" parent="1">
          <mxGeometry width="50" height="50" relative="1" as="geometry">
            <mxPoint x="310" y="110" as="sourcePoint" />
            <mxPoint x="360" y="60" as="targetPoint" />
          </mxGeometry>
        </mxCell>
        <mxCell id="kJlquGAruxBqSHvNYSEQ-37" value="" style="endArrow=none;html=1;rounded=0;entryX=0.7;entryY=0.95;entryDx=0;entryDy=0;entryPerimeter=0;" edge="1" parent="1" target="kJlquGAruxBqSHvNYSEQ-23">
          <mxGeometry width="50" height="50" relative="1" as="geometry">
            <mxPoint x="310" y="110" as="sourcePoint" />
            <mxPoint x="300" y="60" as="targetPoint" />
          </mxGeometry>
        </mxCell>
        <mxCell id="kJlquGAruxBqSHvNYSEQ-38" value="" style="endArrow=none;html=1;rounded=0;entryX=0.5;entryY=1;entryDx=0;entryDy=0;exitX=0.5;exitY=0;exitDx=0;exitDy=0;" edge="1" parent="1" source="kJlquGAruxBqSHvNYSEQ-2" target="kJlquGAruxBqSHvNYSEQ-13">
          <mxGeometry width="50" height="50" relative="1" as="geometry">
            <mxPoint x="580" y="120" as="sourcePoint" />
            <mxPoint x="630" y="70" as="targetPoint" />
          </mxGeometry>
        </mxCell>
        <mxCell id="kJlquGAruxBqSHvNYSEQ-39" value="" style="endArrow=none;html=1;rounded=0;exitX=1;exitY=0.5;exitDx=0;exitDy=0;entryX=0;entryY=0.5;entryDx=0;entryDy=0;" edge="1" parent="1" source="kJlquGAruxBqSHvNYSEQ-10" target="kJlquGAruxBqSHvNYSEQ-2">
          <mxGeometry width="50" height="50" relative="1" as="geometry">
            <mxPoint x="410" y="170" as="sourcePoint" />
            <mxPoint x="460" y="120" as="targetPoint" />
          </mxGeometry>
        </mxCell>
        <mxCell id="kJlquGAruxBqSHvNYSEQ-40" value="" style="endArrow=none;html=1;rounded=0;entryX=0.5;entryY=1;entryDx=0;entryDy=0;exitX=0.5;exitY=0;exitDx=0;exitDy=0;" edge="1" parent="1" source="kJlquGAruxBqSHvNYSEQ-16" target="kJlquGAruxBqSHvNYSEQ-2">
          <mxGeometry width="50" height="50" relative="1" as="geometry">
            <mxPoint x="580" y="250" as="sourcePoint" />
            <mxPoint x="630" y="200" as="targetPoint" />
          </mxGeometry>
        </mxCell>
        <mxCell id="kJlquGAruxBqSHvNYSEQ-41" value="" style="endArrow=none;html=1;rounded=0;exitX=1;exitY=0.5;exitDx=0;exitDy=0;entryX=0;entryY=0.5;entryDx=0;entryDy=0;" edge="1" parent="1" source="kJlquGAruxBqSHvNYSEQ-16" target="kJlquGAruxBqSHvNYSEQ-28">
          <mxGeometry width="50" height="50" relative="1" as="geometry">
            <mxPoint x="650" y="290" as="sourcePoint" />
            <mxPoint x="700" y="240" as="targetPoint" />
          </mxGeometry>
        </mxCell>
        <mxCell id="kJlquGAruxBqSHvNYSEQ-42" value="" style="endArrow=none;html=1;rounded=0;entryX=0.033;entryY=0.36;entryDx=0;entryDy=0;entryPerimeter=0;" edge="1" parent="1" source="kJlquGAruxBqSHvNYSEQ-16" target="kJlquGAruxBqSHvNYSEQ-31">
          <mxGeometry width="50" height="50" relative="1" as="geometry">
            <mxPoint x="670" y="360" as="sourcePoint" />
            <mxPoint x="720" y="310" as="targetPoint" />
          </mxGeometry>
        </mxCell>
        <mxCell id="kJlquGAruxBqSHvNYSEQ-43" value="" style="endArrow=none;html=1;rounded=0;entryX=0.5;entryY=1;entryDx=0;entryDy=0;exitX=0.408;exitY=-0.017;exitDx=0;exitDy=0;exitPerimeter=0;" edge="1" parent="1" source="kJlquGAruxBqSHvNYSEQ-3" target="kJlquGAruxBqSHvNYSEQ-16">
          <mxGeometry width="50" height="50" relative="1" as="geometry">
            <mxPoint x="600" y="410" as="sourcePoint" />
            <mxPoint x="620" y="340" as="targetPoint" />
          </mxGeometry>
        </mxCell>
        <mxCell id="kJlquGAruxBqSHvNYSEQ-44" value="" style="endArrow=none;html=1;rounded=0;exitX=1;exitY=0.25;exitDx=0;exitDy=0;" edge="1" parent="1" source="kJlquGAruxBqSHvNYSEQ-3" target="kJlquGAruxBqSHvNYSEQ-19">
          <mxGeometry width="50" height="50" relative="1" as="geometry">
            <mxPoint x="650" y="500" as="sourcePoint" />
            <mxPoint x="700" y="450" as="targetPoint" />
          </mxGeometry>
        </mxCell>
        <mxCell id="kJlquGAruxBqSHvNYSEQ-45" value="M" style="text;html=1;align=center;verticalAlign=middle;resizable=0;points=[];autosize=1;strokeColor=none;fillColor=none;" vertex="1" parent="1">
          <mxGeometry x="195" y="118" width="30" height="30" as="geometry" />
        </mxCell>
        <mxCell id="kJlquGAruxBqSHvNYSEQ-46" value="N" style="text;html=1;align=center;verticalAlign=middle;resizable=0;points=[];autosize=1;strokeColor=none;fillColor=none;" vertex="1" parent="1">
          <mxGeometry x="435" y="118" width="30" height="30" as="geometry" />
        </mxCell>
        <mxCell id="kJlquGAruxBqSHvNYSEQ-47" value="M" style="text;html=1;align=center;verticalAlign=middle;resizable=0;points=[];autosize=1;strokeColor=none;fillColor=none;" vertex="1" parent="1">
          <mxGeometry x="565" y="198" width="30" height="30" as="geometry" />
        </mxCell>
      </root>
    </mxGraphModel>
  </diagram>
</mxfile>
